Coordinates
version=1
nRows=9
nColumns=36
inDegrees=yes

Units are S.I. units (second, meters, Newtons, ...)
If the header above contains a line with 'inDegrees', this indicates whether rotational values are in degrees (yes) or radians (no).

endheader
time	pelvis_tilt	pelvis_list	pelvis_rotation	pelvis_tx	pelvis_ty	pelvis_tz	hip_flexion_r	hip_adduction_r	hip_rotation_r	knee_angle_r	knee_angle_r_beta	ankle_angle_r	subtalar_angle_r	mtp_angle_r	hip_flexion_l	hip_adduction_l	hip_rotation_l	knee_angle_l	knee_angle_l_beta	ankle_angle_l	subtalar_angle_l	mtp_angle_l	lumbar_extension	lumbar_bending	lumbar_rotation	arm_flex_r	arm_add_r	arm_rot_r	elbow_flex_r	pro_sup_r	arm_flex_l	arm_add_l	arm_rot_l	elbow_flex_l	pro_sup_l
      4.33333330	    -31.28880878	      2.64110302	     -7.58173009	      1.43214272	      0.67549683	      0.07510179	     81.37378233	     -7.90694080	     -1.67485401	     81.54584204	      1.42324343	     39.06767053	      1.63950980	     -7.49999987	     81.57358825	     -9.29957463	      2.83195994	     79.61965029	      1.38962505	     33.04305133	    -10.87076343	     -7.49999987	    -12.30315029	      0.23099759	      7.46549273	     59.37708132	     -4.20736669	     74.00616801	    124.75811676	    108.58108005	     72.44317960	      9.72713967	     74.47843045	    118.78026913	    108.63856253
      4.35000000	    -32.21327977	      2.70498746	     -7.49547527	      1.43000003	      0.66599459	      0.07561653	     83.29783505	     -7.78398069	     -1.57258653	     82.80610105	      1.44523910	     39.13375946	      0.29685430	     -7.49999987	     83.63643551	     -9.35349479	      3.04336413	     81.04195547	      1.41444896	     33.32019976	    -11.02667928	     -7.49999987	    -12.22615702	     -0.00008778	      8.13869218	     58.89858900	     -4.69463085	     74.54772344	    124.73721630	    108.42777368	     72.07574003	     10.24976621	     75.26836074	    118.38093964	    109.10749774
      4.36666670	    -32.69766186	      2.77081104	     -7.39464441	      1.42973690	      0.66030571	      0.07667494	     84.64904988	     -7.78747045	     -1.48304101	     83.98095088	      1.46574410	     39.30114616	     -0.47760851	     -7.49999987	     85.09435622	     -9.30138762	      3.22930015	     82.34094774	      1.43712065	     33.51495137	    -11.26883284	     -7.49999987	    -12.64294656	     -0.14272468	      8.25760353	     58.65812883	     -4.07392861	     76.93095770	    124.71862042	    106.42122203	     71.31057114	     10.42333202	     75.33110748	    117.83104871	    107.08999678
      4.38333330	    -33.23773467	      2.79788828	     -7.25160893	      1.42805402	      0.65164400	      0.07706409	     86.11711246	     -7.76247873	     -1.42931922	     85.24439404	      1.48779534	     39.26497056	     -1.51091095	     -7.49999987	     86.69054276	     -9.35596463	      3.37417421	     83.59521035	      1.45901166	     33.50099545	    -11.53841545	     -7.49999987	    -13.01187231	     -0.10924968	      8.63462497	     58.00395730	     -4.91498499	     76.86701008	    124.75558593	    107.00948658	     71.27128111	     10.77841695	     75.77892233	    117.97487593	    108.97398621
      4.40000000	    -33.66729458	      2.91897618	     -7.22915541	      1.42773549	      0.64031449	      0.07650079	     87.67845302	     -7.73071833	     -1.26515684	     86.76291250	      1.51429849	     39.47718113	     -2.10560097	     -7.49999987	     88.30265711	     -9.43394227	      3.48626085	     85.13314014	      1.48585360	     33.66480663	    -11.93070103	     -7.49999987	    -13.46122684	     -0.18112128	      8.46729975	     57.81973863	     -4.51660814	     77.63373089	    124.21363122	    107.88132944	     70.67005647	     10.78689331	     75.71281407	    118.77275217	    109.55560183
      4.41666670	    -34.10464632	      3.02382335	     -7.13178426	      1.42583953	      0.63408574	      0.07545349	     89.19636041	     -7.79218791	     -1.08058143	     88.27022049	      1.54060598	     39.75590071	     -2.70623680	     -7.49999987	     89.88748641	     -9.40042929	      3.63522340	     86.63419133	      1.51205188	     33.81287224	    -12.20229218	     -7.49999987	    -13.81673831	     -0.21576889	      8.44912778	     57.74374679	     -3.82037645	     79.06258985	    124.60233138	    108.03309593	     70.68173214	     11.40508468	     75.31249150	    118.10905320	    110.12304162
      4.43333330	    -34.41606783	      3.15656043	     -7.05263438	      1.42606517	      0.62848205	      0.07568900	     90.51236605	     -7.83885050	     -0.84640969	     89.68558171	      1.56530869	     40.06325077	     -3.11805545	     -7.49999987	     91.21530372	     -9.33843391	      3.75366381	     88.00349289	      1.53595070	     34.14195975	    -12.41628014	     -7.49999987	    -14.22633913	     -0.29176009	      8.58355920	     57.85299679	     -3.86826256	     80.41756162	    124.48346912	    107.18705081	     70.37343180	     11.84301141	     75.15004734	    117.54753926	    109.39576992
      4.45000000	    -34.71322842	      3.17155082	     -6.96557469	      1.41941733	      0.62213739	      0.07902615	     91.69867156	     -7.78244763	     -0.70584735	     90.91364717	      1.58674248	     40.28605206	     -3.53387725	     -7.49999987	     92.55324245	     -9.40041998	      3.93401702	     89.27715929	      1.55818038	     34.34961657	    -12.52986927	     -7.49999987	    -14.85872073	     -0.39456095	      8.81245906	     58.46808584	     -4.62363600	     79.31909748	    122.75568150	    107.18892358	     70.96762347	     11.48635172	     74.89813431	    116.50005801	    109.49550037
      4.46666670	    -35.13798449	      3.24507213	     -6.92198106	      1.41530835	      0.61302845	      0.07624099	     93.14424493	     -7.77570312	     -0.57518158	     92.17098614	      1.60868718	     40.43131020	     -3.82212996	     -7.49999987	     94.11610035	     -9.52359864	      4.05832717	     90.59158145	      1.58112137	     34.44980137	    -12.67651889	     -7.49999987	    -15.37374450	     -0.53598029	      8.99113762	     59.20185775	     -4.59413796	     79.93000464	    122.92080631	    107.15457202	     71.92562669	     11.56541960	     74.59256626	    115.99009338	    109.40394979
